PathFileType	3	(X/Y/Z)	C:\Users\koon_\Desktop\
DataRate	CameraRate	NumFrames	NumMarkers	Units	OrigDataRate	OrigDataStartFrame	OrigNumFrames
100.0	100.0	9	27	mm	100.0	1	4526	
Frame#	Time	GM:LFHD			GM:RFHD			GM:LBHD			GM:RBHD			GM:C7			GM:T10			GM:CLAV			GM:STRN			GM:RBAK			GM:LSHO			GM:LUPA			GM:LELB			GM:LFRA			GM:LWRA			GM:LWRB			GM:LFIN			GM:RSHO			GM:RUPA			GM:RELB			GM:RFRA			GM:RWRA			GM:RWRB			GM:RFIN			GM:LASI			GM:RASI			GM:LPSI			GM:RPSI			
		X1	Y1	Z1	X2	Y2	Z2	X3	Y3	Z3	X4	Y4	Z4	X5	Y5	Z5	X6	Y6	Z6	X7	Y7	Z7	X8	Y8	Z8	X9	Y9	Z9	X10	Y10	Z10	X11	Y11	Z11	X12	Y12	Z12	X13	Y13	Z13	X14	Y14	Z14	X15	Y15	Z15	X16	Y16	Z16	X17	Y17	Z17	X18	Y18	Z18	X19	Y19	Z19	X20	Y20	Z20	X21	Y21	Z21	X22	Y22	Z22	X23	Y23	Z23	X24	Y24	Z24	X25	Y25	Z25	X26	Y26	Z26	X27	Y27	Z27	
1	0	76.437302	1602.6022	-98.633453	-77.585121	1596.1039	-97.537605	76.351318	1580.412	-230.065	-86.708389	1577.0397	-212.0365	-4.4066396	1414.2958	-263.95419	-2.4075389	1220.1121	-309.58545	8.4554186	1352.2091	-107.39646	8.7429028	1207.3613	-58.806458	-98.264763	1303.0553	-308.77103	175.12868	1384.0232	-197.5632	238.29584	1277.222	-193.32724	261.64496	1062.3813	-224.51308				247.72032	919.27722	-60.348831	289.96362	888.68805	-103.34215	261.80109	852.45496	-9.7256174	-184.12608	1380.2181	-163.26692	-248.53792	1152.6356	-142.20216	-276.19537	1058.1062	-178.60367	-262.18179	1032.8743	-86.048943	-254.52795	925.74023	-9.9870729	-285.91168	891.76489	-51.156307	-266.40817	856.43854	43.24361	144.47084	904.42578	-79.836594	-151.1277	905.60211	-77.389534	73.153992	942.84076	-292.51022	-90.71151	928.90179	-290.37921
2	0.01	76.369888	1602.6669	-98.910263	-77.645607	1596.1318	-97.807915	76.322151	1580.3757	-230.31987	-87.348091	1576.9078	-212.17746	-4.3217201	1414.2802	-264.15228	-2.4073646	1220.0928	-309.59061	8.3885393	1352.197	-107.54828	8.7800093	1207.333	-59.049988	-98.030754	1302.9944	-309.1539	175.17574	1384.0129	-197.69609	238.53258	1277.3772	-193.90102	262.44968	1062.5763	-225.34566	250.66599	982.71979	-100.77186	252.12157	922.90961	-57.97541	293.53693	891.39807	-101.0935	267.46042	857.55164	-6.3232055	-184.11052	1380.1367	-163.87001	-249.40697	1153.0671	-142.86768	-276.49323	1058.1346	-178.94931	-264.62238	1035.0121	-85.617043	-258.73364	929.98871	-6.7485247	-289.40411	895.14484	-47.994659	-271.66129	862.08545	47.985455	144.40948	904.60883	-79.678574	-151.12466	905.59961	-77.436005	73.14537	942.8208	-292.61731	-90.705643	928.87506	-290.54468
3	0.02	76.302841	1602.7667	-99.141457	-77.747818	1596.1891	-98.073112	76.283577	1580.4089	-230.53575	-87.377907	1576.8962	-212.41833	-4.2058754	1414.2587	-264.29437	-2.3521841	1220.0262	-309.75787	8.3557682	1352.202	-107.71628	8.7867861	1207.3613	-59.244324	-97.864807	1302.8893	-309.51477	175.13995	1384.0046	-197.91364	238.7644	1277.5601	-194.47206	263.44	1062.7916	-225.99921	257.60245	986.17529	-98.108131	256.99213	927.01636	-55.430107	297.36423	894.30713	-98.657021	273.98358	863.45209	-1.8918802	-184.15149	1380.0676	-164.52763	-250.50833	1153.5863	-143.59081	-276.75967	1058.2401	-179.13898	-267.21878	1037.3955	-85.081734	-263.04315	934.63251	-3.2874155	-292.35226	898.40826	-44.023315	-277.14059	868.25293	52.943371	144.60397	904.09875	-81.353088	-151.19658	905.63623	-77.576126	73.125313	942.79645	-292.69772	-90.729248	928.83429	-290.62433
4	0.03	76.264328	1602.8348	-99.392807	-77.777641	1596.2159	-98.326874	76.254639	1580.4504	-230.78972	-87.45771	1576.8789	-212.68481	-4.1557832	1414.2191	-264.56671	-2.2397923	1220.0048	-309.93085	8.3428621	1352.2311	-107.94607	8.7526455	1207.4009	-59.454182	-97.606499	1302.7552	-309.89853	175.11456	1383.9856	-198.18353	239.06406	1277.7738	-195.03242	264.65637	1063.1083	-226.61755	259.98825	989.12384	-97.037712	262.32935	931.51715	-52.737473	301.5827	897.73004	-95.843575	280.79999	869.74567	2.3101177	-184.18076	1380.0341	-165.1613	-251.63737	1154.177	-144.11266	-277.64374	1058.389	-179.05092	-269.99341	1039.9907	-84.390823	-267.33871	939.72021	0.3550373	-296.40765	902.3537	-39.853813	-282.71811	875.09534	58.193878	144.56877	904.13458	-81.476608	-151.18842	905.64856	-77.733521	73.098557	942.80676	-292.78079	-90.702667	928.80286	-290.75613
5	0.04	76.174179	1602.9165	-99.595047	-77.861984	1596.2521	-98.6035	76.197983	1580.4875	-230.97285	-87.427422	1576.9097	-212.9063	-4.086997	1414.1918	-264.82794	-2.1859419	1219.9589	-310.09283	8.2795591	1352.276	-108.15192	8.74331	1207.4175	-59.71677	-97.33326	1302.6433	-310.35754	175.11101	1384.0039	-198.47437	239.4034	1278.0553	-195.65425	266.09659	1063.4675	-227.11574	264.09512	992.74805	-95.639397	268.41479	936.78229	-48.934292	305.99374	901.40668	-92.485031	287.93399	876.56213	6.2125378	-184.17668	1380.0442	-165.88567	-252.85184	1154.799	-144.65594	-278.71411	1058.7002	-178.76988	-272.90295	1042.8608	-83.568588	-271.88437	945.27106	4.0853176	-300.50516	906.82135	-35.44677	-288.64267	882.39343	63.538967	144.56885	904.16705	-81.598267	-151.20555	905.68579	-77.813408	73.046837	942.74695	-292.89581	-90.720818	928.78925	-290.88538
6	0.05	76.09137	1602.9741	-99.800743	-77.988541	1596.2328	-98.888542	76.140778	1580.562	-231.15318	-87.447601	1576.9144	-213.15591	-3.9869399	1414.1326	-265.09412	-2.1256447	1219.9198	-310.2662	8.2678137	1352.3102	-108.40138	8.7434206	1207.5031	-59.967136	-97.083038	1302.4844	-310.73444	175.0784	1384.0184	-198.83679	239.75757	1278.3474	-196.42924	267.74231	1063.9244	-227.47321	268.52545	996.68445	-94.143028	273.92239	942.01935	-46.601406	311.4173	905.82861	-89.345131	295.51962	884.11584	11.28827	-184.14212	1380.0552	-166.5844	-254.24289	1155.5586	-145.10147	-279.92285	1059.0664	-178.40298	-275.9003	1045.9039	-82.725792	-276.64966	951.25623	7.9325538	-304.85638	911.7699	-30.879227	-294.84686	890.37152	68.998856	144.54262	904.16797	-81.76223	-151.30908	905.66736	-77.975769	73.049187	942.7489	-293.04462	-90.745102	928.77948	-291.05142
7	0.06	75.966576	1602.9833	-100.00052	-78.072411	1596.2769	-99.114494	76.128937	1580.6432	-231.34587	-87.487549	1576.9374	-213.45375	-3.8800688	1414.1101	-265.41467	-2.1235695	1219.8834	-310.48236	8.2333174	1352.3411	-108.69189	8.7622089	1207.5172	-60.234238	-96.822098	1302.3483	-311.16879	175.03638	1384.0251	-199.2766	240.1188	1278.6556	-197.04552	269.6069	1064.4578	-227.61699	274.017	1001.1634	-92.549713	280.07706	947.87024	-43.626606	317.35489	910.77808	-85.581871	303.22455	892.1142	15.590023	-184.08083	1380.1144	-167.2332	-255.62158	1156.4019	-145.38805	-281.3403	1059.595	-177.84126	-278.948	1049.1687	-81.706421	-281.57031	957.56702	11.780329	-309.45901	917.15753	-26.111805	-301.31592	899.01331	74.467636	144.50948	904.19653	-81.885658	-151.31813	905.70105	-78.149864	73.046875	942.73743	-293.19968	-90.713028	928.7522	-291.18759
8	0.07	75.909203	1603.0082	-100.17725	-78.205544	1596.2303	-99.427895	76.090492	1580.7499	-231.54033	-87.537384	1576.9878	-213.72372	-3.8156772	1414.1184	-265.71606	-2.0883965	1219.8008	-310.69931	8.2207232	1352.4253	-108.99599	8.7668753	1207.5768	-60.49271	-96.629219	1302.1918	-311.50961	174.98622	1384.0352	-199.73508	240.5007	1279.0156	-197.65855	271.73642	1065.1431	-227.5607	278.14536	1005.4905	-90.725807	286.48267	954.26678	-40.243797	323.086	916.07257	-81.747971	311.30069	900.89185	20.660583	-184.00702	1380.1602	-167.92229	-257.10181	1157.3322	-145.65419	-282.99313	1060.2646	-177.08939	-282.09451	1052.7089	-80.607956	-286.70624	964.43457	15.696805	-314.3559	922.86981	-21.314528	-308.00574	908.34845	80.034302	144.5041	904.20313	-81.993645	-151.33948	905.73248	-78.280319	73.048843	942.71698	-293.30148	-90.757492	928.72021	-291.33145
9	0.08	75.822395	1602.995	-100.37402	-78.346931	1596.1149	-99.718796	76.071938	1580.8781	-231.75703	-87.538673	1577.0142	-214.02242	-3.7604499	1414.1039	-266.08597	-2.0432229	1219.7184	-310.9184	8.2340956	1352.4371	-109.34628	8.7830267	1207.6569	-60.834297	-96.492889	1302.0593	-311.86856	174.90689	1384.0917	-200.24947	240.93951	1279.4691	-198.21152	274.09195	1065.8342	-227.35362	283.24515	1010.4759	-88.91806	292.99695	961.1792	-36.884602	329.1955	921.95361	-77.406883	319.52805	910.24048	25.11804	-183.92105	1380.2792	-168.53773	-258.5162	1158.3379	-145.58611	-284.68488	1061.0063	-176.09969	-285.41675	1056.4597	-79.484512	-292.07571	971.66479	19.540314	-319.43207	929.10693	-16.435995	-314.97253	918.0769	85.391014	144.47368	904.22681	-82.163986	-151.4102	905.76025	-78.510918	73.069618	942.72113	-293.43204	-90.766525	928.6781	-291.52762
